<svg width="22" height="23" viewBox="0 0 22 23" fill="none" xmlns="http://www.w3.org/2000/svg">
<path d="M10.9997 22.0585C10.4089 22.0585 9.81622 22.0112 9.23764 21.9179C6.6864 21.506 4.34821 20.191 2.65472 18.2155C0.942872 16.2185 0 13.6665 0 11.0292C0 4.94738 4.93475 0 10.9997 0C17.0647 0 22 4.948 22 11.0292C22 13.7071 21.0314 16.2891 19.2718 18.2996C17.5293 20.2917 15.1355 21.5889 12.5309 21.9529C12.0271 22.0235 11.5115 22.0591 10.9997 22.0591V22.0585ZM10.9997 0.73606C5.33945 0.73606 0.734701 5.35317 0.734701 11.0286C0.734701 16.1099 4.35984 20.3838 9.35458 21.1898C10.3623 21.3525 11.416 21.3642 12.4293 21.2224C17.4663 20.5189 21.2647 16.1362 21.2647 11.0286C21.2647 5.35317 16.66 0.73606 10.9991 0.73606H10.9997Z" fill="white"/>
<path d="M10.1702 11.4348C9.98344 11.1997 9.76915 11.0198 9.52915 10.8976C9.7416 10.7687 9.92343 10.6091 10.074 10.4206C10.3281 10.102 10.4573 9.70177 10.4573 9.23091C10.4573 8.83863 10.3538 8.47828 10.1494 8.15905C9.94547 7.84105 9.64241 7.58506 9.24873 7.39905C8.8624 7.21672 8.39772 7.12402 7.8669 7.12402H4.85156V14.9315H8.00525C8.52199 14.9315 8.98302 14.837 9.37609 14.6516C9.7765 14.4625 10.0887 14.1979 10.303 13.8658C10.5179 13.5325 10.6269 13.1537 10.6269 12.7399C10.6269 12.2556 10.4726 11.816 10.1696 11.4336L10.1702 11.4348ZM8.56853 10.0124C8.3818 10.164 8.11056 10.2408 7.76096 10.2408H6.45688V8.51081H7.76096C8.10872 8.51081 8.37934 8.59062 8.56547 8.74716C8.74425 8.89757 8.83058 9.10507 8.83058 9.38071C8.83058 9.65634 8.74486 9.86875 8.56792 10.0124H8.56853ZM6.45688 11.6257H7.85709C8.22383 11.6257 8.50547 11.7147 8.71914 11.8983C8.92364 12.0739 9.02282 12.3078 9.02282 12.6135C9.02282 12.9192 8.93036 13.1347 8.74118 13.2955C8.54464 13.4631 8.26179 13.5478 7.89995 13.5478H6.45749V11.6257H6.45688Z" fill="white"/>
<path d="M16.7836 10.129C16.5405 9.68887 16.197 9.34202 15.7611 9.09892C15.3258 8.85581 14.8231 8.73242 14.2678 8.73242C13.7125 8.73242 13.1725 8.8595 12.7268 9.10935C12.2805 9.35982 11.9297 9.72141 11.6829 10.1824C11.4368 10.6435 11.3125 11.1849 11.3125 11.7915C11.3125 12.398 11.4411 12.9394 11.6939 13.4005C11.9474 13.8621 12.3019 14.2249 12.7476 14.4785C13.1933 14.7326 13.7046 14.8609 14.2678 14.8609C14.9591 14.8609 15.5468 14.6848 16.0146 14.3379C16.4817 13.9904 16.8093 13.5392 16.9881 12.9953L17.0009 12.9566H15.6332L15.6252 12.9732C15.3619 13.5073 14.9058 13.778 14.2684 13.778C13.824 13.778 13.4444 13.6368 13.1388 13.3587C12.8407 13.0874 12.6699 12.7246 12.6295 12.2789H17.1019L17.1056 12.2537C17.1344 12.0745 17.1485 11.8719 17.1485 11.6515C17.1485 11.08 17.0254 10.5674 16.783 10.1278L16.7836 10.129ZM13.1597 10.2082C13.4505 9.94793 13.8056 9.81595 14.2146 9.81595C14.6658 9.81595 15.0497 9.94977 15.3552 10.2144C15.6521 10.4716 15.8095 10.8166 15.8229 11.2402H12.6411C12.7011 10.8098 12.875 10.463 13.159 10.2088L13.1597 10.2082Z" fill="white"/>
<path d="M15.7214 7.30566H12.7422V8.01349H15.7214V7.30566Z" fill="white"/>
</svg>
