<svg width="22" height="23" viewBox="0 0 22 23" fill="none" xmlns="http://www.w3.org/2000/svg">
<path d="M10.9997 22.0585C10.4089 22.0585 9.81621 22.0112 9.23763 21.9179C6.68638 21.506 4.3482 20.191 2.65471 18.2155C0.942858 16.2185 0 13.6666 0 11.0293C0 4.94739 4.93474 0 10.9997 0C17.0647 0 22 4.948 22 11.0293C22 13.7071 21.0314 16.2891 19.2718 18.2996C17.5293 20.2917 15.1354 21.5889 12.5309 21.9529C12.0271 22.0235 11.5115 22.0591 10.9997 22.0591V22.0585ZM10.9997 0.736061C5.33943 0.736061 0.734701 5.35317 0.734701 11.0286C0.734701 16.1099 4.35983 20.3838 9.35457 21.1899C10.3623 21.3525 11.4166 21.3642 12.4293 21.2224C17.4663 20.5189 21.2647 16.1363 21.2647 11.0286C21.2647 5.35317 16.66 0.736061 10.9991 0.736061H10.9997Z" fill="white"/>
<path d="M17.7535 11.3101C17.7547 11.2867 17.7559 11.2628 17.7566 11.2382L17.7694 10.938L17.7578 10.935C17.7363 9.34866 17.1718 7.84584 16.1543 6.64506L16.1665 6.63217L15.8457 6.30189C14.5606 4.97772 12.8383 4.24902 10.9973 4.24902C10.052 4.24902 9.14218 4.43995 8.28809 4.81565L8.28136 4.81013L8.00401 4.94764C7.63666 5.12996 7.28951 5.34299 6.96625 5.58425C6.75073 5.74509 6.54501 5.91821 6.35154 6.10176C6.2793 6.17052 6.20889 6.24112 6.13971 6.31294C5.18888 7.29763 4.54294 8.56103 4.3207 9.94414L4.24907 10.3917L4.26499 10.3954C4.2454 10.6059 4.23438 10.8177 4.23438 11.0301C4.23438 12.827 4.94948 14.5502 6.20766 15.8167L6.20214 15.8265L6.48378 16.08C7.72604 17.1961 9.3283 17.8112 10.9961 17.8112C11.1142 17.8112 11.2324 17.8081 11.3493 17.802C12.1698 17.7603 12.9639 17.5718 13.7132 17.2409C13.7132 17.2409 13.7139 17.2409 13.7145 17.2403L14.0077 17.1108V17.1016C16.1904 16.0094 17.6488 13.7761 17.751 11.3279C17.751 11.3272 17.751 11.326 17.751 11.3254C17.751 11.3242 17.751 11.323 17.751 11.3223V11.3113L17.7535 11.3101ZM16.7623 11.6808C16.7598 11.7054 16.7561 11.7293 16.7531 11.7533C16.7476 11.795 16.7427 11.8362 16.7365 11.8779C16.7329 11.9043 16.728 11.9307 16.7237 11.9577C16.7176 11.9964 16.7114 12.0351 16.7041 12.0731C16.6992 12.1008 16.6931 12.1284 16.6876 12.156C16.6802 12.1928 16.6729 12.2297 16.6649 12.2665C16.6588 12.2947 16.652 12.323 16.6453 12.3506C16.6367 12.3868 16.6282 12.4224 16.619 12.458C16.6116 12.4863 16.6043 12.5145 16.5963 12.5428C16.5865 12.5778 16.5773 12.6127 16.5669 12.6477C16.559 12.676 16.5498 12.7042 16.5412 12.7325C16.5308 12.7668 16.5198 12.8012 16.5082 12.8356C16.499 12.8638 16.4898 12.8915 16.48 12.9191C16.4684 12.9535 16.4561 12.9872 16.4439 13.021C16.4335 13.0486 16.4237 13.0762 16.4133 13.1032C16.4004 13.137 16.3869 13.1708 16.3735 13.2039C16.3625 13.2309 16.3514 13.2579 16.3404 13.285C16.3263 13.3187 16.3116 13.3519 16.2969 13.385C16.2853 13.4114 16.2737 13.4378 16.2614 13.4636C16.2461 13.4968 16.2302 13.5299 16.2137 13.5631C16.2014 13.5882 16.1892 13.614 16.1763 13.6392C16.1592 13.6729 16.142 13.7061 16.1243 13.7392C16.1114 13.7632 16.0992 13.7877 16.0857 13.8117C16.0667 13.8461 16.0471 13.8798 16.0282 13.9142C16.0153 13.9369 16.0031 13.959 15.9896 13.9817C15.9676 14.0192 15.9449 14.0554 15.9222 14.0922C15.9106 14.1107 15.8996 14.1297 15.888 14.1481C15.8561 14.1978 15.8237 14.2469 15.7906 14.296C15.7875 14.301 15.7839 14.3059 15.7808 14.3108C15.7441 14.3648 15.7061 14.4176 15.6682 14.4704C15.6571 14.4857 15.6449 14.5005 15.6339 14.5158C15.6063 14.5527 15.5788 14.5895 15.5506 14.6257C15.5353 14.6454 15.5194 14.6644 15.5035 14.684C15.4784 14.7153 15.4533 14.7466 15.4276 14.7773C15.4104 14.7982 15.3926 14.8185 15.3749 14.8387C15.3498 14.8676 15.3253 14.8964 15.2996 14.9247C15.2806 14.9455 15.2616 14.9658 15.2426 14.9867C15.2175 15.0137 15.1924 15.0413 15.1667 15.0683C15.1471 15.0892 15.1269 15.1095 15.1067 15.1297C15.081 15.1555 15.0553 15.1819 15.029 15.2071C15.0082 15.2273 14.9873 15.247 14.9659 15.2672C14.9396 15.2924 14.9133 15.317 14.8863 15.3415C14.8649 15.3612 14.8428 15.3808 14.8208 15.3998C14.7939 15.4238 14.7663 15.4477 14.7388 15.471C14.7161 15.4901 14.6941 15.5091 14.6714 15.5275C14.6433 15.5509 14.6157 15.5736 14.5869 15.5957C14.5637 15.6141 14.541 15.6319 14.5177 15.6503C14.489 15.6724 14.4602 15.6945 14.4308 15.716C14.4069 15.7332 14.3837 15.751 14.3598 15.7682C14.3298 15.7897 14.2998 15.8105 14.2698 15.8314C14.2459 15.848 14.222 15.8646 14.1975 15.8805C14.1669 15.9014 14.1351 15.921 14.1039 15.9413C14.08 15.9566 14.0555 15.9726 14.031 15.9873C14.0083 16.0015 13.9851 16.015 13.9618 16.0285C13.8522 14.5981 13.5332 13.1168 13.0251 11.6931C14.2826 11.4095 15.5579 11.4009 16.7629 11.6692C16.7629 11.6729 16.7623 11.6766 16.7616 11.6802L16.7623 11.6808ZM12.673 10.7882C12.5028 10.3837 12.3204 9.98834 12.1245 9.60588C13.3869 9.03005 14.5324 8.25715 15.482 7.33999C16.2627 8.29215 16.7182 9.45732 16.7886 10.6912C15.4545 10.423 14.0506 10.4561 12.673 10.7876V10.7882ZM5.36581 9.62307C5.38785 9.53406 5.41234 9.44627 5.43805 9.35909C5.44295 9.34313 5.44785 9.32717 5.45275 9.3106C5.47908 9.22527 5.50725 9.14055 5.53725 9.05706C5.53908 9.05153 5.54152 9.0454 5.54336 9.03987C5.54703 9.02943 5.55133 9.019 5.555 9.00856C5.58562 8.92569 5.61806 8.84342 5.65234 8.76239C5.65724 8.75072 5.66214 8.73906 5.66704 8.7274C5.66826 8.72494 5.66949 8.72249 5.6701 8.72003C5.70561 8.63715 5.74358 8.55551 5.78337 8.47447C5.7895 8.46158 5.79623 8.44869 5.80236 8.43518C5.84276 8.35353 5.88561 8.27311 5.92969 8.19392C5.92969 8.19392 5.92969 8.19392 5.92969 8.19331C5.93643 8.18103 5.94378 8.16814 5.95052 8.15586C5.9946 8.07851 6.04052 8.00239 6.08766 7.92688C6.09317 7.91828 6.09807 7.9103 6.10358 7.90171C6.10725 7.89618 6.11031 7.89127 6.11398 7.88574C6.16235 7.81023 6.21255 7.73595 6.26398 7.66351C6.27316 7.65062 6.28236 7.63712 6.29216 7.62423C6.34542 7.55056 6.39991 7.47812 6.45624 7.40691C6.46542 7.39524 6.4746 7.38419 6.48378 7.37253C6.54134 7.30132 6.60011 7.23133 6.66072 7.16258C6.66868 7.15398 6.67664 7.14539 6.68399 7.13618C6.74705 7.06619 6.81133 6.99744 6.87746 6.93052C6.8848 6.92315 6.89216 6.91579 6.8995 6.90904C6.96379 6.84458 7.03053 6.78134 7.09787 6.71996C7.104 6.71443 7.11012 6.70829 7.11624 6.70277C7.11992 6.6997 7.12297 6.69663 7.12665 6.69356C7.194 6.63278 7.26379 6.57385 7.33419 6.51614C7.34583 6.50693 7.35685 6.49711 7.36848 6.4879C7.44012 6.43081 7.51298 6.37495 7.58706 6.32092C7.59992 6.31171 7.61277 6.30189 7.62624 6.29269C7.70093 6.23928 7.77685 6.18709 7.85461 6.13675C7.86685 6.12877 7.8791 6.12079 7.89196 6.11343C7.97155 6.06247 8.05237 6.01336 8.13502 5.96671C8.14115 5.96364 8.14666 5.95995 8.15278 5.95688C9.1232 6.80345 10.0122 7.88513 10.7542 9.11968C8.96462 9.75138 7.07399 9.9337 5.35968 9.6421C5.36152 9.63596 5.36275 9.62921 5.36459 9.62307H5.36581ZM11.2777 5.21898C11.3083 5.22021 11.3395 5.22328 11.3702 5.22512C11.4326 5.2288 11.4945 5.2331 11.5569 5.23924C11.593 5.24292 11.6291 5.24722 11.6653 5.25152C11.721 5.25766 11.7773 5.26441 11.833 5.27239C11.871 5.27792 11.9089 5.28405 11.9469 5.29019C12.0002 5.29879 12.0534 5.308 12.1061 5.31843C12.1447 5.3258 12.1832 5.33378 12.2212 5.34176C12.2732 5.35281 12.3247 5.36447 12.3767 5.37736C12.4147 5.38657 12.4526 5.3964 12.4906 5.40622C12.542 5.41973 12.5934 5.43446 12.6443 5.4498C12.681 5.46085 12.7183 5.47129 12.7551 5.48296C12.8071 5.49953 12.8592 5.51733 12.9106 5.53514C12.9449 5.54741 12.9798 5.55908 13.014 5.57136C13.0704 5.59223 13.1255 5.61433 13.1806 5.63705C13.21 5.64871 13.2394 5.65976 13.2681 5.67203C13.3471 5.7058 13.4255 5.74141 13.5032 5.77886C13.5112 5.78254 13.5192 5.78622 13.5271 5.79052C13.6055 5.82858 13.6826 5.86848 13.7598 5.91023C13.7873 5.92557 13.8143 5.94154 13.8418 5.95688C13.8939 5.98635 13.9459 6.01643 13.9973 6.04713C14.0286 6.06616 14.0592 6.08641 14.0904 6.10606C14.1369 6.13553 14.1835 6.16561 14.2294 6.1963C14.2618 6.21779 14.293 6.2405 14.3249 6.26322C14.369 6.29391 14.4124 6.32522 14.4553 6.35776C14.4871 6.38109 14.5184 6.40564 14.5496 6.4302C14.5918 6.46335 14.6341 6.49711 14.6751 6.53088C14.7057 6.55605 14.7357 6.58122 14.7657 6.607C14.7816 6.62112 14.7975 6.63524 14.8135 6.64936C13.9251 7.50636 12.8475 8.22646 11.6591 8.75932C10.9318 7.52171 10.0636 6.42099 9.10972 5.52593C9.71279 5.3172 10.3446 5.21161 10.9967 5.21161C11.091 5.21161 11.1846 5.21407 11.2777 5.21837V5.21898ZM5.21091 10.593C5.79255 10.6913 6.39194 10.7404 7.00052 10.7404C8.40135 10.7404 9.84811 10.4813 11.2312 9.97299C11.4136 10.3248 11.5857 10.687 11.7449 11.0584C11.6646 11.086 11.5838 11.113 11.5042 11.1419C9.47585 11.8939 7.79523 13.2328 6.70543 14.9443C5.73868 13.8792 5.19377 12.482 5.19377 11.0295C5.19377 10.8834 5.19989 10.7379 5.2103 10.5924L5.21091 10.593ZM10.7402 16.8419C10.712 16.8407 10.6844 16.8382 10.6563 16.8363C10.5993 16.8333 10.5424 16.8296 10.4855 16.8247C10.4524 16.8216 10.4193 16.8179 10.3863 16.8142C10.3348 16.8087 10.2834 16.8032 10.232 16.7965C10.1971 16.7915 10.1622 16.7866 10.1279 16.7811C10.0789 16.7737 10.0299 16.7658 9.98097 16.7572C9.94546 16.751 9.91055 16.7443 9.87504 16.7369C9.82728 16.7277 9.77892 16.7173 9.73117 16.7068C9.69627 16.6988 9.66076 16.6909 9.62586 16.6823C9.5781 16.6706 9.53096 16.6583 9.48381 16.6454C9.44953 16.6362 9.41525 16.627 9.38096 16.6166C9.3332 16.6025 9.28544 16.5877 9.2383 16.573C9.20524 16.5626 9.1728 16.5521 9.13974 16.5411C9.09076 16.5245 9.04177 16.5067 8.9934 16.4889C8.96279 16.4778 8.93279 16.4668 8.90218 16.4551C8.84891 16.4342 8.79625 16.4121 8.7436 16.39C8.71849 16.3796 8.69339 16.3698 8.6689 16.3587C8.5936 16.3256 8.51891 16.2912 8.44483 16.2544C8.44299 16.2538 8.44176 16.2531 8.43992 16.2519C8.364 16.2145 8.2887 16.1752 8.21462 16.1347C8.19258 16.1224 8.17053 16.1095 8.14849 16.0966C8.09706 16.0678 8.04624 16.0383 7.99543 16.0076C7.96788 15.991 7.94095 15.9732 7.91401 15.956C7.86931 15.9278 7.82522 15.9002 7.78114 15.8707C7.75236 15.8517 7.72421 15.8314 7.69543 15.8118C7.65441 15.7829 7.61278 15.754 7.57237 15.7246C7.54359 15.7031 7.51482 15.6816 7.48605 15.6595C7.46401 15.6429 7.44196 15.6251 7.42053 15.6079C8.39279 14.002 9.94667 12.7447 11.8367 12.0437C11.923 12.0117 12.01 11.9823 12.0975 11.9528C12.6357 13.4421 12.9553 14.9971 13.0275 16.4784C12.9437 16.5098 12.8598 16.5398 12.7747 16.5675C12.752 16.5748 12.7288 16.581 12.7061 16.5883C12.6394 16.6092 12.5732 16.6289 12.5059 16.6473C12.4722 16.6565 12.4385 16.6645 12.4049 16.6724C12.3473 16.6866 12.2904 16.7007 12.2328 16.7136C12.1961 16.7215 12.1594 16.7289 12.1232 16.7357C12.0675 16.7467 12.0112 16.7572 11.9555 16.7664C11.9181 16.7725 11.8808 16.7786 11.8434 16.7842C11.7859 16.7928 11.7283 16.7995 11.6708 16.8063C11.6346 16.8106 11.5991 16.8149 11.563 16.8185C11.5 16.8247 11.4363 16.829 11.3726 16.8333C11.342 16.8351 11.3114 16.8382 11.2802 16.8394C11.1859 16.8437 11.091 16.8468 10.9955 16.8468C10.9097 16.8468 10.8246 16.8449 10.7395 16.8406L10.7402 16.8419Z" fill="white"/>
</svg>
