<svg width="22" height="23" viewBox="0 0 22 23" fill="none" xmlns="http://www.w3.org/2000/svg">
<path d="M10.9997 22.0591C10.4089 22.0591 9.8156 22.0119 9.23763 21.9179C6.68638 21.506 4.3482 20.191 2.65471 18.2155C0.942858 16.2185 0 13.6666 0 11.0293C0 4.94739 4.93474 0 10.9997 0C17.0647 0 22 4.948 22 11.0293C22 13.7071 21.0314 16.2891 19.2718 18.2996C17.5293 20.2917 15.1354 21.5889 12.5309 21.9529C12.0271 22.0235 11.5115 22.0591 10.9997 22.0591ZM10.9997 0.736675C5.33943 0.736675 0.734701 5.35379 0.734701 11.0293C0.734701 16.1105 4.35983 20.3844 9.35457 21.1905C10.3617 21.3531 11.416 21.3648 12.4293 21.223C17.4663 20.5195 21.2647 16.1369 21.2647 11.0293C21.2647 5.35379 16.66 0.736675 10.9991 0.736675H10.9997Z" fill="white"/>
<path d="M12.4824 8.92841V11.2508H15.3478L14.8941 14.3798H12.4824V21.5882C11.9987 21.6557 11.5041 21.6907 11.002 21.6907C10.4222 21.6907 9.85342 21.644 9.29872 21.5544V14.3798H6.65625V11.2508H9.29872V8.40967C9.29872 6.64656 10.724 5.2168 12.483 5.2168V5.21864C12.4879 5.21864 12.4928 5.2168 12.4977 5.2168H15.3484V7.92224H13.4859C12.9318 7.92224 12.483 8.37222 12.483 8.9278L12.4824 8.92841Z" fill="white"/>
</svg>
