<svg width="22" height="23" viewBox="0 0 22 23" fill="none" xmlns="http://www.w3.org/2000/svg">
<path d="M10.9997 22.0591C10.4089 22.0591 9.81561 22.0118 9.23764 21.9179C6.6864 21.506 4.34821 20.191 2.65472 18.2155C0.942872 16.2185 0 13.6665 0 11.0293C0 4.94739 4.93475 0 10.9997 0C17.0647 0 22 4.948 22 11.0293C22 13.7071 21.0314 16.2891 19.2718 18.2996C17.5293 20.2917 15.1355 21.5889 12.5309 21.9529C12.0271 22.0235 11.5115 22.0591 10.9997 22.0591ZM10.9997 0.736675C5.33945 0.736675 0.734701 5.35379 0.734701 11.0293C0.734701 16.1105 4.35984 20.3844 9.35458 21.1905C10.3617 21.3531 11.416 21.3648 12.4293 21.223C17.4663 20.5195 21.2647 16.1369 21.2647 11.0293C21.2647 5.35379 16.66 0.736675 10.9991 0.736675H10.9997Z" fill="white"/>
<path d="M14.3315 4.62988H7.67209C5.83228 4.62988 4.33594 6.13025 4.33594 7.975V14.0839C4.33594 15.9286 5.83228 17.429 7.67209 17.429H14.3315C16.1714 17.429 17.6677 15.9286 17.6677 14.0839V7.975C17.6677 6.13025 16.1714 4.62988 14.3315 4.62988ZM5.51268 7.975C5.51268 6.78097 6.48126 5.80979 7.67209 5.80979H14.3315C15.5224 5.80979 16.4909 6.78097 16.4909 7.975V14.0839C16.4909 15.2779 15.5224 16.2491 14.3315 16.2491H7.67209C6.48126 16.2491 5.51268 15.2779 5.51268 14.0839V7.975Z" fill="white"/>
<path d="M11.0019 14.1416C12.7132 14.1416 14.1054 12.7456 14.1054 11.0298C14.1054 9.31397 12.7132 7.91797 11.0019 7.91797C9.29071 7.91797 7.89844 9.31397 7.89844 11.0298C7.89844 12.7456 9.29071 14.1416 11.0019 14.1416ZM11.0019 9.09849C12.0642 9.09849 12.9281 9.9647 12.9281 11.0298C12.9281 12.0949 12.0642 12.9611 11.0019 12.9611C9.93969 12.9611 9.07579 12.0949 9.07579 11.0298C9.07579 9.9647 9.93969 9.09849 11.0019 9.09849Z" fill="white"/>
<path d="M14.391 8.41935C14.852 8.41935 15.2273 8.04303 15.2273 7.58077C15.2273 7.11851 14.852 6.74219 14.391 6.74219C13.93 6.74219 13.5547 7.11851 13.5547 7.58077C13.5547 8.04303 13.93 8.41935 14.391 8.41935Z" fill="white"/>
</svg>
