<svg width="22" height="23" viewBox="0 0 22 23" fill="none" xmlns="http://www.w3.org/2000/svg">
<path d="M10.9997 22.0591C10.4083 22.0591 9.8156 22.0119 9.23763 21.9179C6.68638 21.506 4.3482 20.191 2.65471 18.2155C0.942858 16.2185 0 13.6666 0 11.0293C0 4.94738 4.93474 0 10.9997 0C17.0647 0 22 4.948 22 11.0293C22 13.7071 21.0314 16.2891 19.2718 18.2996C17.5293 20.2917 15.1354 21.5889 12.5309 21.9529C12.0271 22.0235 11.5115 22.0591 10.9997 22.0591ZM10.9997 0.736675C5.33943 0.736675 0.734701 5.35378 0.734701 11.0293C0.734701 16.1111 4.35984 20.3844 9.35458 21.1905C10.3611 21.3531 11.416 21.3648 12.4293 21.223C17.4663 20.5195 21.2647 16.1369 21.2647 11.0293C21.2647 5.35378 16.66 0.736675 10.9991 0.736675H10.9997Z" fill="white"/>
<path d="M5.54209 7.42859C5.25861 7.16462 5.11719 6.83803 5.11719 6.44943C5.11719 6.06084 5.25861 5.71951 5.54209 5.45554C5.82556 5.19156 6.19045 5.05957 6.63801 5.05957C7.08556 5.05957 7.43578 5.19156 7.71864 5.45554C8.00211 5.71951 8.14354 6.05101 8.14354 6.44943C8.14354 6.84785 8.00211 7.16462 7.71864 7.42859C7.43517 7.69257 7.07516 7.82456 6.63801 7.82456C6.20086 7.82456 5.82556 7.69257 5.54209 7.42859ZM7.90475 8.94246V17.0318H5.35596V8.94246H7.90475Z" fill="white"/>
<path d="M16.393 9.74107C16.9483 10.3458 17.2263 11.1764 17.2263 12.2335V16.8893H14.8049V12.5619C14.8049 12.0291 14.6671 11.6147 14.3916 11.3194C14.1161 11.0241 13.7457 10.8768 13.2803 10.8768C12.815 10.8768 12.4446 11.0247 12.1691 11.3194C11.8936 11.6147 11.7558 12.0291 11.7558 12.5619V16.8893H9.32031V8.92029H11.7558V9.97742C12.0026 9.62504 12.335 9.34695 12.7532 9.14191C13.1708 8.93748 13.641 8.83496 14.1632 8.83496C15.0938 8.83496 15.8371 9.13761 16.3924 9.74169L16.393 9.74107Z" fill="white"/>
</svg>
